<svg width="640" height="480" viewBox="0 0 640 480" xmlns="http://www.w3.org/2000/svg">
  <defs>
    <linearGradient id="bg" x1="0" y1="0" x2="1" y2="1">
      <stop offset="0" stop-color="#f8f5fb"/>
      <stop offset="1" stop-color="#e9e2f2"/>
    </linearGradient>
    <linearGradient id="box" x1="0" y1="0" x2="0" y2="1">
      <stop offset="0" stop-color="#ffffff"/>
      <stop offset="1" stop-color="#f1ecf6"/>
    </linearGradient>
    <filter id="sh" x="-20%" y="-20%" width="140%" height="140%">
      <feDropShadow dx="0" dy="12" stdDeviation="15" flood-color="#6c5b83" flood-opacity="0.15"/>
    </filter>
  </defs>
  <rect width="640" height="480" fill="url(#bg)"/>
  <circle cx="528" cy="88" r="122" fill="#ffffff" opacity="0.42"/>
  <circle cx="108" cy="428" r="92" fill="#d8cbe6" opacity="0.28"/>
  <g filter="url(#sh)">
    <rect x="170" y="170" width="300" height="150" rx="24" fill="url(#box)"/>
    <rect x="196" y="196" width="56" height="44" rx="12" fill="#ffffff" stroke="#d9cde6" stroke-width="3"/>
    <rect x="264" y="196" width="56" height="44" rx="12" fill="#ffffff" stroke="#d9cde6" stroke-width="3"/>
    <rect x="332" y="196" width="56" height="44" rx="12" fill="#ffffff" stroke="#d9cde6" stroke-width="3"/>
    <rect x="196" y="250" width="56" height="44" rx="12" fill="#ffffff" stroke="#d9cde6" stroke-width="3"/>
    <rect x="264" y="250" width="56" height="44" rx="12" fill="#ffffff" stroke="#d9cde6" stroke-width="3"/>
    <rect x="332" y="250" width="56" height="44" rx="12" fill="#ffffff" stroke="#d9cde6" stroke-width="3"/>
    <circle cx="224" cy="218" r="9" fill="#c9a6dd"/>
    <circle cx="292" cy="218" r="9" fill="#8fcdc0"/>
    <circle cx="360" cy="218" r="9" fill="#eecf9e"/>
    <circle cx="224" cy="272" r="9" fill="#8fcdc0"/>
    <circle cx="292" cy="272" r="9" fill="#eecf9e"/>
    <circle cx="360" cy="272" r="9" fill="#c9a6dd"/>
    <text x="420" y="300" font-family="Arial, sans-serif" font-size="17" fill="#9a87b3" text-anchor="middle">一周</text>
    <text x="420" y="322" font-family="Arial, sans-serif" font-size="17" fill="#9a87b3" text-anchor="middle">分装</text>
  </g>
</svg>
